<?xml version="1.0" encoding="utf-8"?>
<!-- Generator: Adobe Illustrator 16.0.0, SVG Export Plug-In . SVG Version: 6.00 Build 0)  -->
<!DOCTYPE svg PUBLIC "-//W3C//DTD SVG 1.1//EN" "http://www.w3.org/Graphics/SVG/1.1/DTD/svg11.dtd">
<svg version="1.1" id="Layer_1" xmlns="http://www.w3.org/2000/svg" xmlns:xlink="http://www.w3.org/1999/xlink" x="0px" y="0px"
	 width="16px" height="16px" viewBox="0 0 16 16" enable-background="new 0 0 16 16" xml:space="preserve">
<path fill="#6B6B6B" d="M14.997,4h-2.836c0.507-0.413,0.836-1.042,0.836-1.75c0-1.241-1.01-2.25-2.25-2.25
	c-0.645,0-1.578,0.354-2.359,2.04c-0.163,0.352-0.292,0.701-0.39,1c-0.099-0.299-0.227-0.648-0.391-1C6.825,0.354,5.892,0,5.248,0
	c-1.241,0-2.25,1.01-2.25,2.25c0,0.707,0.327,1.337,0.838,1.75H0.997c-0.552,0-1,0.447-1,1v2c0,0.552,0.447,1,1,1v7
	C0.997,15.552,1.445,16,1.998,16h12c0.553,0,0.999-0.448,0.999-1.001V8c0.552,0,1.001-0.448,1.001-1v-2
	C15.998,4.447,15.549,4,14.997,4z M6.497,7v-2h3.002v2H6.497z M9.499,8v7H6.497V8H9.499z M10.497,4H8.796
	c0.683-0.561,1.37-1,1.701-1c0.278,0,0.501,0.225,0.501,0.5C10.998,3.775,10.775,4,10.497,4z M5.498,4c-0.275,0-0.5-0.224-0.5-0.5
	c0-0.275,0.225-0.5,0.5-0.5c0.33,0,1.016,0.439,1.701,1H5.498z M10.747,0.5c0.968,0,1.75,0.783,1.75,1.75
	c0,0.725-0.441,1.346-1.067,1.612c0.042-0.113,0.066-0.235,0.066-0.362c0-0.552-0.447-1-0.999-1c-0.587,0-1.522,0.693-2.191,1.263
	C8.511,2.974,9.276,0.5,10.747,0.5z M3.498,2.25c0-0.967,0.784-1.75,1.75-1.75c1.471,0,2.235,2.474,2.442,3.262
	c-0.67-0.57-1.603-1.263-2.192-1.263c-0.553,0-1,0.448-1,1c0,0.127,0.024,0.25,0.069,0.362C3.938,3.596,3.498,2.975,3.498,2.25z
	 M0.997,4.999h5v2h-5V4.999z M1.998,8h3.999v7H1.998V8z M13.998,14.999H9.997V8h4.001V14.999z M14.997,7h-5v-2h5V7z"/>
</svg>
